IKResults
version=1
nRows=11
nColumns=40
inDegrees=yes

Units are S.I. units (second, meters, Newtons, ...)
Angles are in degrees.

endheader
time	pelvis_tilt	pelvis_list	pelvis_rotation	pelvis_tx	pelvis_ty	pelvis_tz	hip_flexion_r	hip_adduction_r	hip_rotation_r	knee_angle_r	knee_angle_r_beta	ankle_angle_r	subtalar_angle_r	mtp_angle_r	hip_flexion_l	hip_adduction_l	hip_rotation_l	knee_angle_l	knee_angle_l_beta	ankle_angle_l	subtalar_angle_l	mtp_angle_l	lumbar_extension	lumbar_bending	lumbar_rotation	arm_flex_r	arm_add_r	arm_rot_r	elbow_flex_r	pro_sup_r	wrist_flex_r	wrist_dev_r	arm_flex_l	arm_add_l	arm_rot_l	elbow_flex_l	pro_sup_l	wrist_flex_l	wrist_dev_l
      0.53000000	     13.44404788	     -2.03855673	     -1.94691851	     -0.18431661	      0.94992882	      1.44833910	    -16.43027603	      4.45602878	    -13.73666793	    -16.53167468	     -0.28853215	     11.31728958	     -3.10984741	     -2.13850678	      6.96983204	      1.49009164	      4.68883325	    -43.79527810	     -0.76437180	     10.82097790	     17.78268323	     11.06203359	    -22.81133911	      0.52455154	      4.43985988	      0.89481712	    -14.36684140	     -2.38225778	     38.29878271	     89.95437384	      0.00000000	      0.00000000	     -1.79099719	      7.79436564	      9.05755696	     19.63401678	     89.95437384	      0.00000000	      0.00000000
      0.54000000	     12.90302580	     -2.14117797	     -1.82001793	     -0.17123837	      0.94748625	      1.44922108	    -16.67754239	      4.66944679	    -14.04468605	    -16.66339462	     -0.29083110	     11.68476785	     -3.24252342	     -2.14616150	      8.83690003	      1.78326389	      5.45911806	    -41.86100914	     -0.73061244	     10.76354590	     17.33851552	     10.85804907	    -22.26246351	      0.59362718	      4.19182820	      1.40273276	    -14.36073638	     -2.32085395	     39.61688151	     89.95437384	      0.00000000	      0.00000000	     -2.73256040	      7.81905672	      8.86389368	     19.11804214	     89.95437384	      0.00000000	      0.00000000
      0.55000000	     13.08647476	     -1.64980372	     -2.29061445	     -0.15769436	      0.94613017	      1.44998390	    -17.85783783	      4.07919371	    -13.46045302	    -16.53466624	     -0.28858437	     12.55255830	     -3.67593053	     -2.25046444	      9.26187452	      1.20883589	      6.50481529	    -38.74218113	     -0.67617862	     10.21799354	     16.82544010	     10.49852875	    -22.47612909	     -0.09903076	      4.73951104	      1.14624178	    -14.74884331	     -2.17948115	     42.00144312	     89.95437384	      0.00000000	      0.00000000	     -3.03405698	      7.78012358	      8.24831985	     17.87852570	     89.95437384	      0.00000000	      0.00000000
      0.56000000	     12.55286861	     -1.81697609	     -2.07559592	     -0.14439193	      0.94328050	      1.45059135	    -18.13838512	      4.38770883	    -13.96101132	    -16.63495323	     -0.29033470	     12.87382564	     -3.84467805	     -2.24404373	     10.98199916	      1.56649857	      7.57560127	    -36.62655695	     -0.63925401	     10.08042700	     16.30295033	     10.30252530	    -21.91042796	      0.08682919	      4.44072322	      1.55360679	    -14.75554392	     -2.15698368	     43.32873633	     89.95437384	      0.00000000	      0.00000000	     -4.00640273	      7.79268747	      8.10179471	     17.54650989	     89.95437384	      0.00000000	      0.00000000
      0.57000000	     13.34607248	     -1.20964735	     -2.80602651	     -0.12983974	      0.94259057	      1.45170333	    -20.18428498	      3.54673009	    -13.62140813	    -16.17724460	     -0.28234618	     13.22000086	     -4.19476815	     -2.31023073	     10.12709289	      0.99163657	      9.61919549	    -32.66175882	     -0.57005523	      9.33892435	     14.45273825	      9.14833066	    -22.67555208	     -0.84448925	      5.14289598	      1.23390568	    -15.03968852	     -2.23840098	     45.60571277	     89.95437384	      0.00000000	      0.00000000	     -4.58976213	      7.77840989	      7.75702702	     16.89807047	     89.95437384	      0.00000000	      0.00000000
      0.58000000	     13.48465534	     -1.08220270	     -2.99128226	     -0.11577623	      0.94048523	      1.45240047	    -21.35376603	      3.39559122	    -13.71249662	    -16.06528621	     -0.28039214	     13.50313394	     -4.44469799	     -2.39804194	     10.53254255	      1.06240174	     11.72400100	    -29.75441466	     -0.51931250	      8.81642895	     12.19383438	      7.68699164	    -22.77035299	     -1.09873826	      5.32471517	      1.17886243	    -15.23535565	     -2.18255620	     47.40282139	     89.95437384	      0.00000000	      0.00000000	     -5.37915294	      7.79669424	      7.20428247	     16.45815919	     89.95437384	      0.00000000	      0.00000000
      0.59000000	     13.61852248	     -0.94385624	     -3.18551879	     -0.10145894	      0.93821795	      1.45291313	    -22.50458952	      3.17767343	    -13.92348941	    -16.03227521	     -0.27981599	     13.83979056	     -4.51865168	     -2.49745895	     10.81333273	      1.05777012	     13.97316217	    -26.71283533	     -0.46622693	      8.22006114	      9.45800846	      6.15500875	    -22.83519582	     -1.34555291	      5.52098272	      1.03585419	    -15.42565306	     -2.26650180	     49.18759603	     89.95437384	      0.00000000	      0.00000000	     -6.06157970	      7.70167263	      7.42687471	     15.94820647	     89.95437384	      0.00000000	      0.00000000
      0.60000000	     13.77124651	     -0.91202885	     -3.37776752	     -0.08688178	      0.93577568	      1.45345006	    -23.69965583	      3.08812648	    -13.86399069	    -15.98119028	     -0.27892439	     14.03028103	     -4.73729396	     -3.15979918	     11.10529263	      1.31313424	     16.97788626	    -23.92711893	     -0.41760701	      6.66758243	      6.55912835	     -4.41545937	    -22.87977970	     -1.48455219	      5.74799450	      0.86277402	    -15.69464462	     -2.15233821	     50.89210051	     89.95437384	      0.00000000	      0.00000000	     -6.84960688	      7.65829023	      7.15131221	     15.55725275	     89.95437384	      0.00000000	      0.00000000
      0.61000000	     13.95234369	     -0.58049804	     -3.61870720	     -0.07223772	      0.93336026	      1.45346073	    -24.76878215	      2.53060705	    -14.04975544	    -16.25258079	     -0.28366105	     14.35821416	     -4.47925551	     -3.25962064	     11.18182821	      0.91846253	     19.43620432	    -21.05770566	     -0.36752630	      5.64980232	      3.42609670	     -4.90217787	    -22.96484249	     -1.91051881	      5.87358536	      0.64358566	    -15.93669123	     -2.07869538	     52.54643156	     89.95437384	      0.00000000	      0.00000000	     -7.48873100	      7.49463101	      7.78872347	     15.08642170	     89.95437384	      0.00000000	      0.00000000
      0.62000000	     14.07383018	     -0.31718583	     -3.88287596	     -0.05742493	      0.93074961	      1.45344179	    -25.73451229	      1.96995205	    -14.10156942	    -16.66439594	     -0.29084858	     14.66386897	     -3.79103966	     -3.60063106	     11.38486892	      0.71263445	     22.41403259	    -18.63588873	     -0.32525762	      4.56141516	     -0.77958599	     -6.10268153	    -22.95527486	     -2.26388293	      6.06301335	      0.36023336	    -16.21711761	     -2.05666956	     54.16638430	     89.95437384	      0.00000000	      0.00000000	     -8.13491470	      7.34067637	      8.32800861	     14.67943638	     89.95437384	      0.00000000	      0.00000000
      0.63000000	     14.10479993	      0.10307464	     -4.06522264	     -0.04281826	      0.92814223	      1.45300816	    -26.38204606	      1.26357772	    -13.95739898	    -17.43809667	     -0.30435220	     14.80235757	     -4.17239412	     -3.74335935	     11.54380204	     -0.03608163	     23.75681473	    -16.14361474	     -0.28175923	      3.96029022	     -3.01260656	     -6.55449415	    -22.88651882	     -2.72846389	      6.14633276	      0.06359522	    -16.40306540	     -2.20652840	     55.60644023	     89.95437384	      0.00000000	      0.00000000	     -8.57503234	      7.18932216	      9.00750522	     14.11558703	     89.95437384	      0.00000000	      0.00000000
